# xmcd
#
# Track frame offsets:
#	182
#	18744
#	36534
#	52604
#	69550
#	89587
#	109538
#	129866
#	151318
#	169973
#	186599
#	206100
#	228073
#	251142
#	276581
#	293197
#	314338
#	333912
#
# Disc length: 4702 seconds
#
# Revision: 17
# Processed by: cddbd v1.5.2PL0 Copyright (c) Steve Scherf et al.
# Submitted via: audiograbber 1.83.01
#
DISCID=0d125c12
DTITLE=Mary J. Blige - Reflections (A Retrospective)
DYEAR=2006
DGENRE=R&B
TTITLE0=Reflections (I Remember)
TTITLE1=We Ride (I See The Future)
TTITLE2=You Know
TTITLE3=King and Queen (with John Legend)
TTITLE4=No More Drama
TTITLE5=Family Affair
TTITLE6=Real Love
TTITLE7=No One Will Do
TTITLE8=Be Without You
TTITLE9=I'm Going Down
TTITLE10=911 (with Wyclef)
TTITLE11=Not Gon' Cry
TTITLE12=My Life '06
TTITLE13=Be Happy
TTITLE14=I'll Be There For You - You're All I Need To Get By
TTITLE15=As (with George Michael)
TTITLE16=One (with U2)
TTITLE17=MJB Da MVP (with 50 Cent)
EXTD=(c) 2006 YEAR: 2006
EXTT0=
EXTT1=
EXTT2=
EXTT3=
EXTT4=
EXTT5=
EXTT6=
EXTT7=
EXTT8=
EXTT9=
EXTT10=
EXTT11=
EXTT12=
EXTT13=
EXTT14=
EXTT15=
EXTT16=
EXTT17=
PLAYORDER=
